<?xml version="1.0" encoding="utf-8"?>
<!-- Generator: Adobe Illustrator 26.0.1, SVG Export Plug-In . SVG Version: 6.00 Build 0)  -->
<svg version="1.1"
	 id="svg2" sodipodi:docname="iMac.svg" xmlns:cc="http://creativecommons.org/ns#" xmlns:dc="http://purl.org/dc/elements/1.1/" xmlns:inkscape="http://www.inkscape.org/namespaces/inkscape" xmlns:rdf="http://www.w3.org/1999/02/22-rdf-syntax-ns#" xmlns:sodipodi="http://sodipodi.sourceforge.net/DTD/sodipodi-0.dtd" xmlns:svg="http://www.w3.org/2000/svg"
	 xmlns="http://www.w3.org/2000/svg" xmlns:xlink="http://www.w3.org/1999/xlink" x="0px" y="0px" viewBox="0 0 1880.6 1554.7"
	 style="enable-background:new 0 0 1880.6 1554.7;" xml:space="preserve">
<style type="text/css">
	.st0{fill:url(#path3928_00000000933859012892878170000015193352121822243763_);}
	
		.st1{clip-path:url(#SVGID_00000149376935648763901690000010189552234725173938_);fill:url(#rect3941_00000009578704443793628720000000762943311001019560_);}
	.st2{fill:url(#path3928-8_00000008149424588061516320000003173094754224475549_);}
	
		.st3{clip-path:url(#SVGID_00000140006989085658328670000015678040173350755743_);fill:url(#rect3941-5_00000006674686264353828730000016520956144829004991_);}
	.st4{fill:url(#path3002_00000140710508645425589240000002316832332362761897_);}
	.st5{clip-path:url(#SVGID_00000096778431099911954710000005133838492486635932_);filter:url(#filter4281);}
	.st6{opacity:0.7843;fill:#FFFFFF;}
	.st7{clip-path:url(#SVGID_00000170253842117047994350000008173104175316108427_);filter:url(#filter4285);}
	.st8{clip-path:url(#SVGID_00000160880450317518387360000007035309583091390621_);filter:url(#filter3867);}
	.st9{opacity:0.5882;fill:#FFFFFF;}
	.st10{clip-path:url(#SVGID_00000162349206256433182390000006021156598103229584_);filter:url(#filter3909);}
	.st11{fill:#FFFFFF;}
	.st12{fill:#C9A700;fill-opacity:0.4894;}
	.st13{fill:url(#path4382_00000134941255609917959050000013921666240085883813_);}
	.st14{fill:url(#path4493_00000115509090670487583460000004685428064110697368_);}
	.st15{fill:url(#path4497_00000135660835438478404290000008896871057183788204_);}
	.st16{fill:url(#rect4398_00000158022040506403765690000003302917232501427080_);}
	.st17{fill:url(#rect4398-8_00000047741896416745687930000014378133474889669778_);}
	.st18{opacity:0;}
	.st19{stroke:#DCDCDC;stroke-width:1.5;}
	
		.st20{clip-path:url(#SVGID_00000026135477323285779520000003360949990343211429_);fill:url(#path4516_00000006682346379141002030000006659641138064217219_);}
</style>
<filter  color-interpolation-filters="sRGB" height="1.6016878" id="filter4285" width="1.6818392" x="-0.34091958" y="-0.30084389">
	<feGaussianBlur  id="feGaussianBlur4287" stdDeviation="15.692135"></feGaussianBlur>
</filter>
<filter  color-interpolation-filters="sRGB" height="1.6016878" id="filter4281" width="1.6818392" x="-0.34091958" y="-0.30084389">
	<feGaussianBlur  id="feGaussianBlur4283" stdDeviation="15.692135"></feGaussianBlur>
</filter>
<filter  color-interpolation-filters="sRGB" height="4.8926253" id="filter3909" width="1.7093352" x="-0.35466763" y="-1.9463127">
	<feGaussianBlur  id="feGaussianBlur3911" stdDeviation="74.754651"></feGaussianBlur>
</filter>
<filter  color-interpolation-filters="sRGB" height="2.8435745" id="filter3867" width="1.2221603" x="-0.11108017" y="-0.9217872">
	<feGaussianBlur  id="feGaussianBlur3869" stdDeviation="18.422615"></feGaussianBlur>
</filter>
<sodipodi:namedview  bordercolor="#666666" borderopacity="1" gridtolerance="10" guidetolerance="10" id="namedview3857" inkscape:current-layer="svg2" inkscape:cx="1059.1305" inkscape:cy="261.84961" inkscape:pageopacity="0" inkscape:pageshadow="2" inkscape:window-height="988" inkscape:window-maximized="1" inkscape:window-width="1680" inkscape:window-x="-8" inkscape:window-y="-8" inkscape:zoom="1.4230524" objecttolerance="10" pagecolor="#ffffff" showgrid="false">
	</sodipodi:namedview>
<g id="layer12" transform="translate(0,-45.3)">
</g>
<g id="layer2" transform="translate(-340.00073,-22.000996)">
	<g id="layer5">
		
			<linearGradient id="path3928_00000020387878186218259820000009200262217210177172_" gradientUnits="userSpaceOnUse" x1="1476.4972" y1="20.0438" x2="1476.4972" y2="-2.8111" gradientTransform="matrix(1 0 0 -1 -340.0007 1573.8909)">
			<stop  offset="0" style="stop-color:#E6E6E8"/>
			<stop  offset="1" style="stop-color:#6E6E6E"/>
		</linearGradient>
		
			<path id="path3928" inkscape:connector-curvature="0" style="fill:url(#path3928_00000020387878186218259820000009200262217210177172_);" d="
			M993.1,1560.3c-0.8,10.6,5.5,17.1,48.2,16.3H1280v-22.8L993.1,1560.3z"/>
		<g>
			<defs>
				<path id="SVGID_1_" d="M993.1,1560.3c-0.8,10.6,5.5,17.1,48.2,16.3H1280v-22.8L993.1,1560.3z"/>
			</defs>
			<clipPath id="SVGID_00000026159762543593671740000017394469923059580059_">
				<use xlink:href="#SVGID_1_"  style="overflow:visible;"/>
			</clipPath>
			
				<linearGradient id="rect3941_00000033368872099621564190000004152883044406637725_" gradientUnits="userSpaceOnUse" x1="1397.4285" y1="37.3601" x2="1450.1105" y2="37.3601" gradientTransform="matrix(1.4201 0 0 -1 -991.4774 1601.2354)">
				<stop  offset="0" style="stop-color:#000000;stop-opacity:0.3922"/>
				<stop  offset="1" style="stop-color:#000000;stop-opacity:0"/>
			</linearGradient>
			
				<rect id="rect3941" x="993.1" y="1544.8" style="clip-path:url(#SVGID_00000026159762543593671740000017394469923059580059_);fill:url(#rect3941_00000033368872099621564190000004152883044406637725_);" width="74.8" height="38.1"/>
		</g>
	</g>
	<g id="layer6">
		
			<linearGradient id="path3928-8_00000157987046667869226570000009028614525165236388_" gradientUnits="userSpaceOnUse" x1="2760.4971" y1="20.0438" x2="2760.4971" y2="-2.8111" gradientTransform="matrix(-1 0 0 -1 4184.0005 1573.8909)">
			<stop  offset="0" style="stop-color:#E6E6E8"/>
			<stop  offset="1" style="stop-color:#6E6E6E"/>
		</linearGradient>
		
			<path id="path3928-8" inkscape:connector-curvature="0" style="fill:url(#path3928-8_00000157987046667869226570000009028614525165236388_);" d="
			M1566.9,1560.3c0.8,10.6-5.5,17.1-48.2,16.3H1280v-22.8L1566.9,1560.3z"/>
		<g>
			<defs>
				<path id="SVGID_00000122001790742868011620000016476571701224433557_" d="M1566.9,1560.3c0.8,10.6-5.5,17.1-48.2,16.3H1280
					v-22.8L1566.9,1560.3z"/>
			</defs>
			<clipPath id="SVGID_00000116234164823884437150000016660102586512086920_">
				<use xlink:href="#SVGID_00000122001790742868011620000016476571701224433557_"  style="overflow:visible;"/>
			</clipPath>
			
				<linearGradient id="rect3941-5_00000114785126395283730690000003860286966134186646_" gradientUnits="userSpaceOnUse" x1="2301.5681" y1="37.3602" x2="2354.2502" y2="37.3602" gradientTransform="matrix(-1.4201 0 0 -1 4835.4771 1601.2354)">
				<stop  offset="0" style="stop-color:#000000;stop-opacity:0.3922"/>
				<stop  offset="1" style="stop-color:#000000;stop-opacity:0"/>
			</linearGradient>
			
				<rect id="rect3941-5" x="1492.1" y="1544.8" style="clip-path:url(#SVGID_00000116234164823884437150000016660102586512086920_);fill:url(#rect3941-5_00000114785126395283730690000003860286966134186646_);" width="74.8" height="38.1"/>
		</g>
	</g>
	<g id="layer3">
		
			<linearGradient id="path3002_00000026868972299614784870000006300168725038664632_" gradientUnits="userSpaceOnUse" x1="1884.9072" y1="248.6306" x2="1884.9072" y2="6.5961" gradientTransform="matrix(1 0 0 -1 -604.9071 1573.8909)">
			<stop  offset="0" style="stop-color:#808185"/>
			<stop  offset="0.3414" style="stop-color:#C2C3C7"/>
			<stop  offset="0.6726" style="stop-color:#9C9DA1"/>
			<stop  offset="0.7745" style="stop-color:#7A7B7F"/>
			<stop  offset="0.9125" style="stop-color:#A2A3A7"/>
			<stop  offset="1" style="stop-color:#B8B9BD"/>
		</linearGradient>
		
			<path id="path3002" inkscape:connector-curvature="0" style="fill:url(#path3002_00000026868972299614784870000006300168725038664632_);" d="
			M1280,1269.3l-189.2,5.9c1.5,55.4-3.9,117.8-11.6,174.4c-1.6,12-3.2,25.1-6,37.8c-3.7,14.6-9.5,23.8-17.9,30.6
			c-7,5.6-16,9.4-24.3,14c-12.3,6.8-22.5,13.6-29.2,19c-2.8,2.3-6,4.9-8.3,8.1c-0.3,0.5-0.5,1-0.5,1.4c0,1.7,2.5,2.8,4.6,3.6
			c7,2.3,20,3,35.6,3.2c8.4,0.1,18.6-0.1,27.9-0.1H1280h218.8c9.3-0.1,19.5,0.1,27.9,0.1c15.6-0.1,28.6-0.9,35.6-3.2
			c2.2-0.8,4.6-1.8,4.6-3.6c0-0.4-0.1-0.9-0.5-1.4c-2.4-3.2-5.5-5.8-8.3-8.1c-6.7-5.4-16.8-12.2-29.2-19c-8.3-4.7-17.4-8.4-24.3-14
			c-8.3-6.8-14.2-16-17.9-30.6c-2.8-12.7-4.4-25.8-6-37.8c-7.7-56.6-13.1-119-11.6-174.4L1280,1269.3z"/>
	</g>
	<g id="layer8">
		<g>
			<defs>
				<path id="SVGID_00000089567964027584111600000006967909768940778173_" d="M1280,1269.3l-189.2,5.9
					c1.5,55.4-3.9,117.8-11.6,174.4c-1.6,12-3.2,25.1-6,37.8c-3.7,14.6-9.5,23.8-17.9,30.6c-7,5.6-16,9.4-24.3,14
					c-12.3,6.8-22.5,13.6-29.2,19c-2.8,2.3-6,4.9-8.3,8.1c-0.3,0.5-0.5,1-0.5,1.4c0,1.7,2.5,2.8,4.6,3.6c7,2.3,20,3,35.6,3.2
					c8.4,0.1,18.6-0.1,27.9-0.1H1280h218.8c9.3-0.1,19.5,0.1,27.9,0.1c15.6-0.1,28.6-0.9,35.6-3.2c2.2-0.8,4.6-1.8,4.6-3.6
					c0-0.4-0.1-0.9-0.5-1.4c-2.4-3.2-5.5-5.8-8.3-8.1c-6.7-5.4-16.8-12.2-29.2-19c-8.3-4.7-17.4-8.4-24.3-14
					c-8.3-6.8-14.2-16-17.9-30.6c-2.8-12.7-4.4-25.8-6-37.8c-7.7-56.6-13.1-119-11.6-174.4L1280,1269.3z"/>
			</defs>
			<clipPath id="SVGID_00000083076482503209840710000002220449944705180047_">
				<use xlink:href="#SVGID_00000089567964027584111600000006967909768940778173_"  style="overflow:visible;"/>
			</clipPath>
			
				<g id="path4182" inkscape:connector-curvature="0" style="clip-path:url(#SVGID_00000083076482503209840710000002220449944705180047_);filter:url(#filter4281);">
				<path class="st6" d="M993.1,1498.1c31.4-4.7,52.6,13.5,77.3,23.7c-36.8,69.5-73.6,79.8-110.5,100.7l9.6-93.7L993.1,1498.1z"/>
			</g>
		</g>
		<g>
			<defs>
				<path id="SVGID_00000029753164418940684750000017173999697745895555_" d="M1280,1269.3l-189.2,5.9
					c1.5,55.4-3.9,117.8-11.6,174.4c-1.6,12-3.2,25.1-6,37.8c-3.7,14.6-9.5,23.8-17.9,30.6c-7,5.6-16,9.4-24.3,14
					c-12.3,6.8-22.5,13.6-29.2,19c-2.8,2.3-6,4.9-8.3,8.1c-0.3,0.5-0.5,1-0.5,1.4c0,1.7,2.5,2.8,4.6,3.6c7,2.3,20,3,35.6,3.2
					c8.4,0.1,18.6-0.1,27.9-0.1H1280h218.8c9.3-0.1,19.5,0.1,27.9,0.1c15.6-0.1,28.6-0.9,35.6-3.2c2.2-0.8,4.6-1.8,4.6-3.6
					c0-0.4-0.1-0.9-0.5-1.4c-2.4-3.2-5.5-5.8-8.3-8.1c-6.7-5.4-16.8-12.2-29.2-19c-8.3-4.7-17.4-8.4-24.3-14
					c-8.3-6.8-14.2-16-17.9-30.6c-2.8-12.7-4.4-25.8-6-37.8c-7.7-56.6-13.1-119-11.6-174.4L1280,1269.3L1280,1269.3z"/>
			</defs>
			<clipPath id="SVGID_00000130623669472015692040000006899394163960518558_">
				<use xlink:href="#SVGID_00000029753164418940684750000017173999697745895555_"  style="overflow:visible;"/>
			</clipPath>
			
				<g id="path4182-3" inkscape:connector-curvature="0" style="clip-path:url(#SVGID_00000130623669472015692040000006899394163960518558_);filter:url(#filter4285);">
				<path class="st6" d="M1566.9,1498.1c-31.4-4.7-52.6,13.5-77.3,23.7c36.8,69.5,73.6,79.8,110.5,100.7l-9.6-93.7L1566.9,1498.1z"
					/>
			</g>
		</g>
	</g>
	<g id="layer4">
		<g>
			<defs>
				<path id="SVGID_00000090976406953694645140000011876150782786458503_" d="M1280,1269.3l-189.2,5.9
					c1.5,55.4-3.9,117.8-11.6,174.4c-1.6,12-3.2,25.1-6,37.8c-3.7,14.6-9.5,23.8-17.9,30.6c-7,5.6-16,9.4-24.3,14
					c-12.3,6.8-22.5,13.6-29.2,19c-2.8,2.3-6,4.9-8.3,8.1c-0.3,0.5-0.5,1-0.5,1.4c0,1.7,2.5,2.8,4.6,3.6c7,2.3,20,3,35.6,3.2
					c8.4,0.1,18.6-0.1,27.9-0.1H1280h218.8c9.3-0.1,19.5,0.1,27.9,0.1c15.6-0.1,28.6-0.9,35.6-3.2c2.2-0.8,4.6-1.8,4.6-3.6
					c0-0.4-0.1-0.9-0.5-1.4c-2.4-3.2-5.5-5.8-8.3-8.1c-6.7-5.4-16.8-12.2-29.2-19c-8.3-4.7-17.4-8.4-24.3-14
					c-8.3-6.8-14.2-16-17.9-30.6c-2.8-12.7-4.4-25.8-6-37.8c-7.7-56.6-13.1-119-11.6-174.4L1280,1269.3z"/>
			</defs>
			<clipPath id="SVGID_00000176759963438738600830000000688199849084220065_">
				<use xlink:href="#SVGID_00000090976406953694645140000011876150782786458503_"  style="overflow:visible;"/>
			</clipPath>
			<g id="rect3853" style="clip-path:url(#SVGID_00000176759963438738600830000000688199849084220065_);filter:url(#filter3867);">
				<path class="st9" d="M1280,1430.2L1280,1430.2c139.7,0,252.9,10.7,252.9,24l0,0c0,13.2-113.2,24-252.9,24l0,0
					c-139.7,0-252.9-10.7-252.9-24l0,0C1027.1,1440.9,1140.3,1430.2,1280,1430.2z"/>
			</g>
		</g>
	</g>
	<g id="g3887">
		<g>
			<defs>
				<path id="SVGID_00000041275717922430847230000006755634417074253185_" d="M1280,1269.3l-189.2,5.9
					c1.5,55.4-3.9,117.8-11.6,174.4c-1.6,12-3.2,25.1-6,37.8c-3.7,14.6-9.5,23.8-17.9,30.6c-7,5.6-16,9.4-24.3,14
					c-12.3,6.8-22.5,13.6-29.2,19c-2.8,2.3-6,4.9-8.3,8.1c-0.3,0.5-0.5,1-0.5,1.4c0,1.7,2.5,2.8,4.6,3.6c7,2.3,20,3,35.6,3.2
					c8.4,0.1,18.6-0.1,27.9-0.1H1280h218.8c9.3-0.1,19.5,0.1,27.9,0.1c15.6-0.1,28.6-0.9,35.6-3.2c2.2-0.8,4.6-1.8,4.6-3.6
					c0-0.4-0.1-0.9-0.5-1.4c-2.4-3.2-5.5-5.8-8.3-8.1c-6.7-5.4-16.8-12.2-29.2-19c-8.3-4.7-17.4-8.4-24.3-14
					c-8.3-6.8-14.2-16-17.9-30.6c-2.8-12.7-4.4-25.8-6-37.8c-7.7-56.6-13.1-119-11.6-174.4L1280,1269.3z"/>
			</defs>
			<clipPath id="SVGID_00000000216880270426819370000007022707737720503978_">
				<use xlink:href="#SVGID_00000041275717922430847230000006755634417074253185_"  style="overflow:visible;"/>
			</clipPath>
			<g id="rect3889" style="clip-path:url(#SVGID_00000000216880270426819370000007022707737720503978_);filter:url(#filter3909);">
				<path class="st11" d="M1280,1403.2L1280,1403.2c139.7,0,252.9,20.6,252.9,46.1v0c0,25.5-113.2,46.1-252.9,46.1l0,0
					c-139.7,0-252.9-20.6-252.9-46.1v0C1027.1,1423.9,1140.3,1403.2,1280,1403.2z"/>
			</g>
		</g>
	</g>
	<g id="g3913">
	</g>
</g>
<g id="layer9" transform="translate(-340.00073,-22.000996)">
	<path id="rect4316" inkscape:connector-curvature="0" class="st12" d="M402.3,22C358.9,22,340,35.3,340,84.3V149v990.8v45.2v64.7
		c0,49,18.9,62.3,62.3,62.3h133.5h10.1h1482.4h129.4c43.4,0,62.3-13.3,62.3-62.3v-109.9V149V84.3c0-49-18.9-62.3-62.3-62.3h-133.5
		h-10.1H531.7H402.3z"/>
</g>
<g id="g4380" transform="translate(-340.00073,-22.000996)">
	
		<linearGradient id="path4382_00000074411438322600382890000014190908987478353553_" gradientUnits="userSpaceOnUse" x1="716.0355" y1="346.8218" x2="2560.574" y2="349.1669" gradientTransform="matrix(1 0 0 -1 -340.0007 1573.8909)">
		<stop  offset="0" style="stop-color:#A5A6AA"/>
		<stop  offset="1" style="stop-color:#E1E2E4"/>
	</linearGradient>
	
		<path id="path4382" inkscape:connector-curvature="0" style="fill:url(#path4382_00000074411438322600382890000014190908987478353553_);" d="
		M340,1139.8v45.2v64.7c0,49,18.9,62.3,62.3,62.3h133.5h10.1h1482.4h129.4c43.4,0,62.3-13.3,62.3-62.3v-109.9L340,1139.8z"/>
</g>
<g id="g4491" transform="translate(-340.00073,-22.000996)">
	
		<linearGradient id="path4493_00000047779764110430764610000017542372499790995604_" gradientUnits="userSpaceOnUse" x1="1524.3866" y1="347.9378" x2="1974.0691" y2="347.9378" gradientTransform="matrix(1 0 0 -1 -340.0007 1573.8909)">
		<stop  offset="0" style="stop-color:#808080"/>
		<stop  offset="1" style="stop-color:#808080;stop-opacity:0"/>
	</linearGradient>
	
		<path id="path4493" inkscape:connector-curvature="0" style="fill:url(#path4493_00000047779764110430764610000017542372499790995604_);" d="
		M340,1139.8v45.2v64.7c0,49,18.9,62.3,62.3,62.3h133.5h10.1h1482.4h129.4c43.4,0,62.3-13.3,62.3-62.3v-109.9L340,1139.8z"/>
</g>
<g id="g4495" transform="translate(-340.00073,-22.000996)">
	
		<linearGradient id="path4497_00000040543858474283194760000007940938714591297973_" gradientUnits="userSpaceOnUse" x1="716.0325" y1="349.1664" x2="2560.571" y2="351.5115" gradientTransform="matrix(1 0 0 -1 -340.0007 1573.8909)">
		<stop  offset="0" style="stop-color:#A5A6AA"/>
		<stop  offset="1" style="stop-color:#E1E2E4"/>
	</linearGradient>
	
		<path id="path4497" inkscape:connector-curvature="0" style="fill:url(#path4497_00000040543858474283194760000007940938714591297973_);" d="
		M340,1137.5v45.2v64.7c0,49,19,62.3,62.3,62.3h133.5h10.1h1482.9h129.4c43.4,0,62.3-13.3,62.3-62.3v-109.9L340,1137.5z"/>
</g>
<g id="layer11" transform="translate(-340.00073,-22.000996)">
	
		<linearGradient id="rect4398_00000101808114526708195140000003264493582547191690_" gradientUnits="userSpaceOnUse" x1="680.0007" y1="426.2586" x2="1333.0598" y2="426.2586" gradientTransform="matrix(1 0 0 -1 -340.0007 1567.3208)">
		<stop  offset="0" style="stop-color:#D5D5D7;stop-opacity:0"/>
		<stop  offset="9.579180e-03" style="stop-color:#D5D5D7"/>
		<stop  offset="1" style="stop-color:#E6E6E6"/>
	</linearGradient>
	
		<rect id="rect4398" x="340" y="1139.9" style="fill:url(#rect4398_00000101808114526708195140000003264493582547191690_);" width="653.1" height="2.4"/>
	
		<linearGradient id="rect4398-8_00000181798481137955350990000003725036360517666219_" gradientUnits="userSpaceOnUse" x1="1964.0006" y1="426.2587" x2="2617.0596" y2="426.2587" gradientTransform="matrix(-1 0 0 -1 3610.1187 1567.3209)">
		<stop  offset="0" style="stop-color:#D5D5D7;stop-opacity:0"/>
		<stop  offset="9.579180e-03" style="stop-color:#D5D5D7"/>
		<stop  offset="1" style="stop-color:#E6E6E6"/>
	</linearGradient>
	
		<rect id="rect4398-8" x="993.1" y="1139.9" style="fill:url(#rect4398-8_00000181798481137955350990000003725036360517666219_);" width="653.1" height="2.4"/>
</g>
<g id="layer10" transform="translate(-340.00073,-22.000996)" class="st18">
	<g id="text4486">
		<path id="path6883" class="st19" d="M1279.2,1199.8c1.2,0,3.8-0.6,7.5-1.7c3.8-1.1,7-1.7,9.7-1.7c6.3,0,11.4,2.6,15.5,7.9
			c4.1,5.3,6.2,12.1,6.2,20.4c0,9-2.7,18.2-8,27.5c-5.4,9.4-10.8,14.2-16.4,14.2c-1.8,0-4.3-0.6-7.2-1.8c-3-1.2-5.6-1.8-7.8-1.8
			c-2.2,0-5,0.6-8.2,1.8c-3.3,1.2-5.8,1.8-7.6,1.8c-4.7,0-9.3-3.6-14.1-10.7c-3.1-4.8-5.4-9.3-6.7-13.7c3.2-1,6.1-3.3,8.6-6.9
			c2.5-3.6,3.8-7.7,3.8-12.2c0-4.1-1.2-7.9-3.6-11.3c-1.3-1.9-3.4-4-6.2-6.4c1.9-2.3,3.8-4.1,5.7-5.5c3.4-2.3,7.3-3.5,11.7-3.5
			c2.7,0,5.8,0.6,9.4,1.9C1275,1199.2,1277.6,1199.8,1279.2,1199.8L1279.2,1199.8z M1262.5,1177.8c0-0.4,0-0.7,0.1-1.1
			c0-0.4,0.1-0.8,0.3-1.2c6.4,1.5,10.9,4.2,13.7,8.1c2.8,3.9,4.2,8.6,4.2,14c-2.5-0.2-4.4-0.5-5.6-0.9c-2-0.7-3.9-2-5.9-3.9
			c-2.3-2.3-4-4.8-5.1-7.5C1263,1182.5,1262.5,1180,1262.5,1177.8L1262.5,1177.8z"/>
	</g>
</g>
<g id="g4376" transform="translate(-340.00073,-22.000996)">
	<path id="path4378" inkscape:connector-curvature="0" d="M402.3,22C358.9,22,340,35.3,340,84.3V149v990.8h1880V149V84.3
		c0-49-18.9-62.3-62.3-62.3h-133.5h-10.1H531.7H402.3z"/>
</g>
<g id="layer14" transform="translate(-340.00073,-22.000996)">
	<rect id="rect4535" x="419.1" y="96.4" class="st11" width="1721.7" height="969.1"/>
</g>
<g id="layer13" transform="translate(-340.00073,-22.000996)">
	<g>
		<defs>
			<path id="SVGID_00000088109908641108013520000011832889878513138342_" d="M402.3,22C358.9,22,340,35.3,340,84.3V149v990.8h1880
				V149V84.3c0-49-18.9-62.3-62.3-62.3h-133.5h-10.1H531.7H402.3z"/>
		</defs>
		<clipPath id="SVGID_00000170237942187729715710000002195354694376239266_">
			<use xlink:href="#SVGID_00000088109908641108013520000011832889878513138342_"  style="overflow:visible;"/>
		</clipPath>
		
			<linearGradient id="path4516_00000152976912392842806340000018274310145262552215_" gradientUnits="userSpaceOnUse" x1="2201.7798" y1="1760.4785" x2="2647.4751" y2="170.6801" gradientTransform="matrix(1 0 0 -1 -340.0007 1573.8909)">
			<stop  offset="0" style="stop-color:#FFFFFF;stop-opacity:0.1961"/>
			<stop  offset="1" style="stop-color:#FFFFFF;stop-opacity:0"/>
		</linearGradient>
		
			<path id="path4516" inkscape:connector-curvature="0" style="clip-path:url(#SVGID_00000170237942187729715710000002195354694376239266_);fill:url(#path4516_00000152976912392842806340000018274310145262552215_);" d="
			M1420.1,9.8l632.5,1414l333.3,21.2l6.4-1511.3L1420.1,9.8z"/>
	</g>
</g>
</svg>
