<?xml version="1.0" encoding="utf-8"?>
<!-- Generator: Adobe Illustrator 26.0.1, SVG Export Plug-In . SVG Version: 6.00 Build 0)  -->
<svg version="1.1"
	 id="svg2" sodipodi:docname="iMac.svg" xmlns:cc="http://creativecommons.org/ns#" xmlns:dc="http://purl.org/dc/elements/1.1/" xmlns:inkscape="http://www.inkscape.org/namespaces/inkscape" xmlns:rdf="http://www.w3.org/1999/02/22-rdf-syntax-ns#" xmlns:sodipodi="http://sodipodi.sourceforge.net/DTD/sodipodi-0.dtd" xmlns:svg="http://www.w3.org/2000/svg"
	 xmlns="http://www.w3.org/2000/svg" xmlns:xlink="http://www.w3.org/1999/xlink" x="0px" y="0px" viewBox="0 0 1880.6 439.2"
	 style="enable-background:new 0 0 1880.6 439.2;" xml:space="preserve">
<style type="text/css">
	.st0{fill:url(#path3928_00000116198748200758698070000004057764879842364832_);}
	
		.st1{clip-path:url(#SVGID_00000137116154287127367790000012746013966401041318_);fill:url(#rect3941_00000093157535778806969590000016962600691503761033_);}
	.st2{fill:url(#path3928-8_00000097482313742394874630000002802492494930497168_);}
	
		.st3{clip-path:url(#SVGID_00000137118412576378884590000005522779851957169294_);fill:url(#rect3941-5_00000183962976079461004520000000518088596679934900_);}
	.st4{fill:url(#path3002_00000163050009843987706700000017088997206029018265_);}
	.st5{clip-path:url(#SVGID_00000087383999277146218510000014099789412232285375_);filter:url(#filter4281);}
	.st6{opacity:0.7843;fill:#FFFFFF;}
	.st7{clip-path:url(#SVGID_00000074413224557268575820000005214922896020575387_);filter:url(#filter4285);}
	.st8{clip-path:url(#SVGID_00000103954445161085123640000001252954546090186647_);filter:url(#filter3867);}
	.st9{opacity:0.5882;fill:#FFFFFF;}
	.st10{clip-path:url(#SVGID_00000083799497580433698110000000531097183306668708_);filter:url(#filter3909);}
	.st11{fill:#FFFFFF;}
	.st12{fill:url(#path4382_00000165217318726924063570000015147653063199336860_);}
	.st13{fill:url(#path4493_00000068641502429968406480000000644914303329563278_);}
	.st14{fill:url(#path4497_00000042724727296770658860000015775799171374254006_);}
	.st15{fill:url(#rect4398_00000044880309151676247700000003628290742723591338_);}
	.st16{fill:url(#rect4398-8_00000037673588833949623510000004089573122345361035_);}
</style>
<filter  color-interpolation-filters="sRGB" height="1.6016878" id="filter4285" width="1.6818392" x="-0.34091958" y="-0.30084389">
	<feGaussianBlur  id="feGaussianBlur4287" stdDeviation="15.692135"></feGaussianBlur>
</filter>
<filter  color-interpolation-filters="sRGB" height="1.6016878" id="filter4281" width="1.6818392" x="-0.34091958" y="-0.30084389">
	<feGaussianBlur  id="feGaussianBlur4283" stdDeviation="15.692135"></feGaussianBlur>
</filter>
<filter  color-interpolation-filters="sRGB" height="4.8926253" id="filter3909" width="1.7093352" x="-0.35466763" y="-1.9463127">
	<feGaussianBlur  id="feGaussianBlur3911" stdDeviation="74.754651"></feGaussianBlur>
</filter>
<filter  color-interpolation-filters="sRGB" height="2.8435745" id="filter3867" width="1.2221603" x="-0.11108017" y="-0.9217872">
	<feGaussianBlur  id="feGaussianBlur3869" stdDeviation="18.422615"></feGaussianBlur>
</filter>
<sodipodi:namedview  bordercolor="#666666" borderopacity="1" gridtolerance="10" guidetolerance="10" id="namedview3857" inkscape:current-layer="svg2" inkscape:cx="1059.1305" inkscape:cy="261.84961" inkscape:pageopacity="0" inkscape:pageshadow="2" inkscape:window-height="988" inkscape:window-maximized="1" inkscape:window-width="1680" inkscape:window-x="-8" inkscape:window-y="-8" inkscape:zoom="1.4230524" objecttolerance="10" pagecolor="#ffffff" showgrid="false">
	</sodipodi:namedview>
<g id="layer12" transform="translate(0,-45.3)">
</g>
<g id="layer2" transform="translate(-340.00073,-22.000996)">
	<g id="layer5">
		
			<linearGradient id="path3928_00000090290097941770935420000000837876319032208515_" gradientUnits="userSpaceOnUse" x1="1476.4972" y1="-1095.4539" x2="1476.4972" y2="-1118.3087" gradientTransform="matrix(1 0 0 -1 -340.0007 -657.1045)">
			<stop  offset="0" style="stop-color:#E6E6E8"/>
			<stop  offset="1" style="stop-color:#6E6E6E"/>
		</linearGradient>
		
			<path id="path3928" inkscape:connector-curvature="0" style="fill:url(#path3928_00000090290097941770935420000000837876319032208515_);" d="
			M993.1,444.8c-0.8,10.6,5.5,17.1,48.2,16.3H1280v-22.8L993.1,444.8z"/>
		<g>
			<defs>
				<path id="SVGID_1_" d="M993.1,444.8c-0.8,10.6,5.5,17.1,48.2,16.3H1280v-22.8L993.1,444.8z"/>
			</defs>
			<clipPath id="SVGID_00000052817935410762697240000006078463239655330484_">
				<use xlink:href="#SVGID_1_"  style="overflow:visible;"/>
			</clipPath>
			
				<linearGradient id="rect3941_00000023250775492422948510000013260701770733435010_" gradientUnits="userSpaceOnUse" x1="1397.4285" y1="-1078.1376" x2="1450.1105" y2="-1078.1376" gradientTransform="matrix(1.4201 0 0 -1 -991.4774 -629.76)">
				<stop  offset="0" style="stop-color:#000000;stop-opacity:0.3922"/>
				<stop  offset="1" style="stop-color:#000000;stop-opacity:0"/>
			</linearGradient>
			
				<rect id="rect3941" x="993.1" y="429.3" style="clip-path:url(#SVGID_00000052817935410762697240000006078463239655330484_);fill:url(#rect3941_00000023250775492422948510000013260701770733435010_);" width="74.8" height="38.1"/>
		</g>
	</g>
	<g id="layer6">
		
			<linearGradient id="path3928-8_00000075157023429278304130000006050409729177037220_" gradientUnits="userSpaceOnUse" x1="2760.4971" y1="-1095.4539" x2="2760.4971" y2="-1118.3087" gradientTransform="matrix(-1 0 0 -1 4184.0005 -657.1045)">
			<stop  offset="0" style="stop-color:#E6E6E8"/>
			<stop  offset="1" style="stop-color:#6E6E6E"/>
		</linearGradient>
		
			<path id="path3928-8" inkscape:connector-curvature="0" style="fill:url(#path3928-8_00000075157023429278304130000006050409729177037220_);" d="
			M1566.9,444.8c0.8,10.6-5.5,17.1-48.2,16.3H1280v-22.8L1566.9,444.8z"/>
		<g>
			<defs>
				<path id="SVGID_00000035512466733199221400000018018578925256093367_" d="M1566.9,444.8c0.8,10.6-5.5,17.1-48.2,16.3H1280v-22.8
					L1566.9,444.8z"/>
			</defs>
			<clipPath id="SVGID_00000001650728534173691430000016589398885333206174_">
				<use xlink:href="#SVGID_00000035512466733199221400000018018578925256093367_"  style="overflow:visible;"/>
			</clipPath>
			
				<linearGradient id="rect3941-5_00000173857044390760522260000000855204944277401985_" gradientUnits="userSpaceOnUse" x1="2301.5681" y1="-1078.1375" x2="2354.2502" y2="-1078.1375" gradientTransform="matrix(-1.4201 0 0 -1 4835.4771 -629.7599)">
				<stop  offset="0" style="stop-color:#000000;stop-opacity:0.3922"/>
				<stop  offset="1" style="stop-color:#000000;stop-opacity:0"/>
			</linearGradient>
			
				<rect id="rect3941-5" x="1492.1" y="429.3" style="clip-path:url(#SVGID_00000001650728534173691430000016589398885333206174_);fill:url(#rect3941-5_00000173857044390760522260000000855204944277401985_);" width="74.8" height="38.1"/>
		</g>
	</g>
	<g id="layer3">
		
			<linearGradient id="path3002_00000060722159223684963170000007797638311334210956_" gradientUnits="userSpaceOnUse" x1="1884.9072" y1="-866.8671" x2="1884.9072" y2="-1108.9015" gradientTransform="matrix(1 0 0 -1 -604.9071 -657.1045)">
			<stop  offset="0" style="stop-color:#808185"/>
			<stop  offset="0.3414" style="stop-color:#C2C3C7"/>
			<stop  offset="0.6726" style="stop-color:#9C9DA1"/>
			<stop  offset="0.7745" style="stop-color:#7A7B7F"/>
			<stop  offset="0.9125" style="stop-color:#A2A3A7"/>
			<stop  offset="1" style="stop-color:#B8B9BD"/>
		</linearGradient>
		
			<path id="path3002" inkscape:connector-curvature="0" style="fill:url(#path3002_00000060722159223684963170000007797638311334210956_);" d="
			M1280,153.8l-189.2,5.9c1.5,55.4-3.9,117.8-11.6,174.4c-1.6,12-3.2,25.1-6,37.8c-3.7,14.6-9.5,23.8-17.9,30.6
			c-7,5.6-16,9.4-24.3,14c-12.3,6.8-22.5,13.6-29.2,19c-2.8,2.3-6,4.9-8.3,8.1c-0.3,0.5-0.5,1-0.5,1.4c0,1.7,2.5,2.8,4.6,3.6
			c7,2.3,20,3,35.6,3.2c8.4,0.1,18.6-0.1,27.9-0.1H1280h218.8c9.3-0.1,19.5,0.1,27.9,0.1c15.6-0.1,28.6-0.9,35.6-3.2
			c2.2-0.8,4.6-1.8,4.6-3.6c0-0.4-0.1-0.9-0.5-1.4c-2.4-3.2-5.5-5.8-8.3-8.1c-6.7-5.4-16.8-12.2-29.2-19c-8.3-4.7-17.4-8.4-24.3-14
			c-8.3-6.8-14.2-16-17.9-30.6c-2.8-12.7-4.4-25.8-6-37.8c-7.7-56.6-13.1-119-11.6-174.4L1280,153.8z"/>
	</g>
	<g id="layer8">
		<g>
			<defs>
				<path id="SVGID_00000133524971056146471980000012361727875125208234_" d="M1280,153.8l-189.2,5.9c1.5,55.4-3.9,117.8-11.6,174.4
					c-1.6,12-3.2,25.1-6,37.8c-3.7,14.6-9.5,23.8-17.9,30.6c-7,5.6-16,9.4-24.3,14c-12.3,6.8-22.5,13.6-29.2,19
					c-2.8,2.3-6,4.9-8.3,8.1c-0.3,0.5-0.5,1-0.5,1.4c0,1.7,2.5,2.8,4.6,3.6c7,2.3,20,3,35.6,3.2c8.4,0.1,18.6-0.1,27.9-0.1H1280
					h218.8c9.3-0.1,19.5,0.1,27.9,0.1c15.6-0.1,28.6-0.9,35.6-3.2c2.2-0.8,4.6-1.8,4.6-3.6c0-0.4-0.1-0.9-0.5-1.4
					c-2.4-3.2-5.5-5.8-8.3-8.1c-6.7-5.4-16.8-12.2-29.2-19c-8.3-4.7-17.4-8.4-24.3-14c-8.3-6.8-14.2-16-17.9-30.6
					c-2.8-12.7-4.4-25.8-6-37.8c-7.7-56.6-13.1-119-11.6-174.4L1280,153.8z"/>
			</defs>
			<clipPath id="SVGID_00000057839415315471492340000000619021555386419112_">
				<use xlink:href="#SVGID_00000133524971056146471980000012361727875125208234_"  style="overflow:visible;"/>
			</clipPath>
			
				<g id="path4182" inkscape:connector-curvature="0" style="clip-path:url(#SVGID_00000057839415315471492340000000619021555386419112_);filter:url(#filter4281);">
				<path class="st6" d="M993.1,382.6c31.4-4.7,52.6,13.5,77.3,23.7c-36.8,69.5-73.6,79.8-110.5,100.7l9.6-93.7L993.1,382.6z"/>
			</g>
		</g>
		<g>
			<defs>
				<path id="SVGID_00000033336170911185025130000003532543513637140406_" d="M1280,153.8l-189.2,5.9c1.5,55.4-3.9,117.8-11.6,174.4
					c-1.6,12-3.2,25.1-6,37.8c-3.7,14.6-9.5,23.8-17.9,30.6c-7,5.6-16,9.4-24.3,14c-12.3,6.8-22.5,13.6-29.2,19
					c-2.8,2.3-6,4.9-8.3,8.1c-0.3,0.5-0.5,1-0.5,1.4c0,1.7,2.5,2.8,4.6,3.6c7,2.3,20,3,35.6,3.2c8.4,0.1,18.6-0.1,27.9-0.1H1280
					h218.8c9.3-0.1,19.5,0.1,27.9,0.1c15.6-0.1,28.6-0.9,35.6-3.2c2.2-0.8,4.6-1.8,4.6-3.6c0-0.4-0.1-0.9-0.5-1.4
					c-2.4-3.2-5.5-5.8-8.3-8.1c-6.7-5.4-16.8-12.2-29.2-19c-8.3-4.7-17.4-8.4-24.3-14c-8.3-6.8-14.2-16-17.9-30.6
					c-2.8-12.7-4.4-25.8-6-37.8c-7.7-56.6-13.1-119-11.6-174.4L1280,153.8L1280,153.8z"/>
			</defs>
			<clipPath id="SVGID_00000068679807864671677590000000153489415672461713_">
				<use xlink:href="#SVGID_00000033336170911185025130000003532543513637140406_"  style="overflow:visible;"/>
			</clipPath>
			
				<g id="path4182-3" inkscape:connector-curvature="0" style="clip-path:url(#SVGID_00000068679807864671677590000000153489415672461713_);filter:url(#filter4285);">
				<path class="st6" d="M1566.9,382.6c-31.4-4.7-52.6,13.5-77.3,23.7c36.8,69.5,73.6,79.8,110.5,100.7l-9.6-93.7L1566.9,382.6z"/>
			</g>
		</g>
	</g>
	<g id="layer4">
		<g>
			<defs>
				<path id="SVGID_00000109740961528908027210000013951836418369254543_" d="M1280,153.8l-189.2,5.9c1.5,55.4-3.9,117.8-11.6,174.4
					c-1.6,12-3.2,25.1-6,37.8c-3.7,14.6-9.5,23.8-17.9,30.6c-7,5.6-16,9.4-24.3,14c-12.3,6.8-22.5,13.6-29.2,19
					c-2.8,2.3-6,4.9-8.3,8.1c-0.3,0.5-0.5,1-0.5,1.4c0,1.7,2.5,2.8,4.6,3.6c7,2.3,20,3,35.6,3.2c8.4,0.1,18.6-0.1,27.9-0.1H1280
					h218.8c9.3-0.1,19.5,0.1,27.9,0.1c15.6-0.1,28.6-0.9,35.6-3.2c2.2-0.8,4.6-1.8,4.6-3.6c0-0.4-0.1-0.9-0.5-1.4
					c-2.4-3.2-5.5-5.8-8.3-8.1c-6.7-5.4-16.8-12.2-29.2-19c-8.3-4.7-17.4-8.4-24.3-14c-8.3-6.8-14.2-16-17.9-30.6
					c-2.8-12.7-4.4-25.8-6-37.8c-7.7-56.6-13.1-119-11.6-174.4L1280,153.8z"/>
			</defs>
			<clipPath id="SVGID_00000132077760991796627180000010317741982315258242_">
				<use xlink:href="#SVGID_00000109740961528908027210000013951836418369254543_"  style="overflow:visible;"/>
			</clipPath>
			<g id="rect3853" style="clip-path:url(#SVGID_00000132077760991796627180000010317741982315258242_);filter:url(#filter3867);">
				<path class="st9" d="M1280,314.7L1280,314.7c139.7,0,252.9,10.7,252.9,24l0,0c0,13.2-113.2,24-252.9,24l0,0
					c-139.7,0-252.9-10.7-252.9-24l0,0C1027.1,325.4,1140.3,314.7,1280,314.7z"/>
			</g>
		</g>
	</g>
	<g id="g3887">
		<g>
			<defs>
				<path id="SVGID_00000007394493401601023940000001364750532065773191_" d="M1280,153.8l-189.2,5.9c1.5,55.4-3.9,117.8-11.6,174.4
					c-1.6,12-3.2,25.1-6,37.8c-3.7,14.6-9.5,23.8-17.9,30.6c-7,5.6-16,9.4-24.3,14c-12.3,6.8-22.5,13.6-29.2,19
					c-2.8,2.3-6,4.9-8.3,8.1c-0.3,0.5-0.5,1-0.5,1.4c0,1.7,2.5,2.8,4.6,3.6c7,2.3,20,3,35.6,3.2c8.4,0.1,18.6-0.1,27.9-0.1H1280
					h218.8c9.3-0.1,19.5,0.1,27.9,0.1c15.6-0.1,28.6-0.9,35.6-3.2c2.2-0.8,4.6-1.8,4.6-3.6c0-0.4-0.1-0.9-0.5-1.4
					c-2.4-3.2-5.5-5.8-8.3-8.1c-6.7-5.4-16.8-12.2-29.2-19c-8.3-4.7-17.4-8.4-24.3-14c-8.3-6.8-14.2-16-17.9-30.6
					c-2.8-12.7-4.4-25.8-6-37.8c-7.7-56.6-13.1-119-11.6-174.4L1280,153.8z"/>
			</defs>
			<clipPath id="SVGID_00000165213992294798352110000015951801770999130289_">
				<use xlink:href="#SVGID_00000007394493401601023940000001364750532065773191_"  style="overflow:visible;"/>
			</clipPath>
			<g id="rect3889" style="clip-path:url(#SVGID_00000165213992294798352110000015951801770999130289_);filter:url(#filter3909);">
				<path class="st11" d="M1280,287.7L1280,287.7c139.7,0,252.9,20.6,252.9,46.1v0c0,25.5-113.2,46.1-252.9,46.1l0,0
					c-139.7,0-252.9-20.6-252.9-46.1v0C1027.1,308.4,1140.3,287.7,1280,287.7z"/>
			</g>
		</g>
	</g>
	<g id="g3913">
	</g>
</g>
<g id="g4380" transform="translate(-340.00073,-22.000996)">
	
		<linearGradient id="path4382_00000041982388214987123540000014178103984138161804_" gradientUnits="userSpaceOnUse" x1="716.0355" y1="-768.6759" x2="2560.574" y2="-766.3308" gradientTransform="matrix(1 0 0 -1 -340.0007 -657.1045)">
		<stop  offset="0" style="stop-color:#A5A6AA"/>
		<stop  offset="1" style="stop-color:#E1E2E4"/>
	</linearGradient>
	
		<path id="path4382" inkscape:connector-curvature="0" style="fill:url(#path4382_00000041982388214987123540000014178103984138161804_);" d="
		M340,24.3v45.2v64.7c0,49,18.9,62.3,62.3,62.3h133.5h10.1h1482.4h129.4c43.4,0,62.3-13.3,62.3-62.3V24.3L340,24.3z"/>
</g>
<g id="g4491" transform="translate(-340.00073,-22.000996)">
	
		<linearGradient id="path4493_00000092423717968446924540000006164875868166510772_" gradientUnits="userSpaceOnUse" x1="1524.3866" y1="-767.5598" x2="1974.0691" y2="-767.5598" gradientTransform="matrix(1 0 0 -1 -340.0007 -657.1045)">
		<stop  offset="0" style="stop-color:#808080"/>
		<stop  offset="1" style="stop-color:#808080;stop-opacity:0"/>
	</linearGradient>
	
		<path id="path4493" inkscape:connector-curvature="0" style="fill:url(#path4493_00000092423717968446924540000006164875868166510772_);" d="
		M340,24.3v45.2v64.7c0,49,18.9,62.3,62.3,62.3h133.5h10.1h1482.4h129.4c43.4,0,62.3-13.3,62.3-62.3V24.3L340,24.3z"/>
</g>
<g id="g4495" transform="translate(-340.00073,-22.000996)">
	
		<linearGradient id="path4497_00000074431087987471548180000000514323063043190184_" gradientUnits="userSpaceOnUse" x1="716.0325" y1="-766.3313" x2="2560.571" y2="-763.9862" gradientTransform="matrix(1 0 0 -1 -340.0007 -657.1045)">
		<stop  offset="0" style="stop-color:#A5A6AA"/>
		<stop  offset="1" style="stop-color:#E1E2E4"/>
	</linearGradient>
	
		<path id="path4497" inkscape:connector-curvature="0" style="fill:url(#path4497_00000074431087987471548180000000514323063043190184_);" d="
		M340,22v45.2v64.7c0,49,19,62.3,62.3,62.3h133.5h10.1h1482.9h129.4c43.4,0,62.3-13.3,62.3-62.3V22L340,22z"/>
</g>
<g id="layer11" transform="translate(-340.00073,-22.000996)">
	
		<linearGradient id="rect4398_00000129925250451424940600000017857357332611590574_" gradientUnits="userSpaceOnUse" x1="680.0007" y1="-689.2391" x2="1333.0598" y2="-689.2391" gradientTransform="matrix(1 0 0 -1 -340.0007 -663.6745)">
		<stop  offset="0" style="stop-color:#D5D5D7;stop-opacity:0"/>
		<stop  offset="9.579180e-03" style="stop-color:#D5D5D7"/>
		<stop  offset="1" style="stop-color:#E6E6E6"/>
	</linearGradient>
	
		<rect id="rect4398" x="340" y="24.4" style="fill:url(#rect4398_00000129925250451424940600000017857357332611590574_);" width="653.1" height="2.4"/>
	
		<linearGradient id="rect4398-8_00000015317841302259405690000014364528902795366304_" gradientUnits="userSpaceOnUse" x1="1964.0006" y1="-689.239" x2="2617.0596" y2="-689.239" gradientTransform="matrix(-1 0 0 -1 3610.1187 -663.6744)">
		<stop  offset="0" style="stop-color:#D5D5D7;stop-opacity:0"/>
		<stop  offset="9.579180e-03" style="stop-color:#D5D5D7"/>
		<stop  offset="1" style="stop-color:#E6E6E6"/>
	</linearGradient>
	
		<rect id="rect4398-8" x="993.1" y="24.4" style="fill:url(#rect4398-8_00000015317841302259405690000014364528902795366304_);" width="653.1" height="2.4"/>
</g>
</svg>
